#!OML:ASF E:\Style6\Style6.ASF
:FULLY-SPECIFIED
:DEGREES
3832
root 0.246986 18.3204 -0.00297746 10.148 -3.57458 -3.07906
lowerback -5.35384 0.0360125 1.76897
upperback -3.72532 -0.0247595 2.15871
thorax -0.82996 -0.0220633 1.22381
lowerneck -5.35937 -5.24133 0.836327
upperneck 8.26371 -6.61268 -5.83702
head 3.39064 -3.49805 -2.36922
rclavicle -3.26966e-015 2.62396e-014
rhumerus -34.6658 33.2105 -100.99
rradius 88.6167
rwrist 20.0804
rhand -2.99436 5.42493
rfingers 7.12502
rthumb 22.7194 -23.2575
lclavicle -3.26966e-015 2.62396e-014
lhumerus -40.7518 13.064 78.7072
lradius 23.8656
lwrist -13.7137
lhand -3.50821 22.7043
lfingers 7.12502
lthumb 22.2262 51.4463
rfemur -6.78676 11.8738 20.5191
rtibia -9.93923e-015
rfoot -0.0488409 -14.3749
rtoes -4.48289
lfemur -15.1011 -22.657 -12.8581
ltibia 17.6839
lfoot -6.13876 27.1098
ltoes -7.92004
3833
root 0.248777 18.3198 -0.00553315 10.1933 -3.61081 -2.95738
lowerback -5.34532 0.0076569 1.66801
upperback -3.72414 -0.0582229 2.15224
thorax -0.832949 -0.0371151 1.27222
lowerneck -5.38921 -5.1906 0.85072
upperneck 8.21017 -6.5529 -5.77174
head 3.3817 -3.465 -2.347
rclavicle -3.62627e-016 5.96354e-015
rhumerus -34.8919 33.5258 -101.39
rradius 88.9022
rwrist 20.2656
rhand -3.13356 5.54586
rfingers 7.12502
rthumb 22.5858 -23.1529
lclavicle -3.62627e-016 5.96354e-015
lhumerus -41.0011 12.4021 79.3455
lradius 25.335
lwrist -11.5599
lhand -3.23391 23.8898
lfingers 7.12502
lthumb 22.4895 52.6003
rfemur -6.86271 11.886 20.3658
rtibia 1.35174e-014
rfoot 0.067453 -14.3903
rtoes -5.25897
lfemur -15.1482 -22.4567 -12.9839
ltibia 17.6163
lfoot -6.11635 26.9268
ltoes -7.94622
3834
root 0.251892 18.3192 -0.00801567 10.2254 -3.65788 -2.93337
lowerback -5.31919 0.00328324 1.68731
upperback -3.72105 -0.0641369 2.15714
thorax -0.844283 -0.0404305 1.26617
lowerneck -5.39701 -5.14616 0.915543
upperneck 8.16874 -6.5031 -5.73928
head 3.36967 -3.4366 -2.3444
rclavicle -3.7971e-015 1.66979e-014
rhumerus -35.0752 33.7454 -101.73
rradius 89.1992
rwrist 20.3934
rhand -3.12505 5.63234
rfingers 7.12502
rthumb 22.594 -23.0654
lclavicle -3.7971e-015 1.66979e-014
lhumerus -41.2494 11.7305 79.9652
lradius 26.914
lwrist -9.37295
lhand -3.1565 25.0387
lfingers 7.12502
lthumb 22.5638 53.7402
rfemur -6.91635 11.926 20.3115
rtibia 7.55382e-015
rfoot 0.065179 -14.3889
rtoes -5.03662
lfemur -15.1409 -22.2037 -13.0349
ltibia 17.545
lfoot -6.05647 26.6923
ltoes -8.23897
3835
root 0.255849 18.3186 -0.00947773 10.1992 -3.72688 -2.87838
lowerback -5.21706 -0.0233621 1.68413
upperback -3.73157 -0.0960323 2.16567
thorax -0.911593 -0.0565327 1.2754
lowerneck -5.4093 -5.0887 0.901834
upperneck 8.21658 -6.42767 -5.68142
head 3.39377 -3.39788 -2.32223
rclavicle 1.90484e-014 -2.06736e-014
rhumerus -35.2517 33.8982 -102.029
rradius 89.5386
rwrist 20.7047
rhand -3.00211 5.61886
rfingers 7.12502
rthumb 22.7119 -23.0645
lclavicle 1.90484e-014 -2.06736e-014
lhumerus -41.5642 11.0635 80.5904
lradius 28.6268
lwrist -7.07971
lhand -3.08852 26.1759
lfingers 7.12502
lthumb 22.629 54.8694
rfemur -6.90353 11.9808 20.228
rtibia -1.59028e-015
rfoot 0.108004 -14.3948
rtoes -4.96901
lfemur -15.0649 -22.0248 -13.1519
ltibia 17.4938
lfoot -6.00768 26.5667
ltoes -8.47986
3836
root 0.260782 18.3181 -0.0105131 10.1573 -3.786 -2.84323
lowerback -5.14341 -0.0698112 1.72008
upperback -3.69888 -0.157949 2.17298
thorax -0.918368 -0.0881497 1.2601
lowerneck -5.48204 -4.99506 0.930213
upperneck 8.27467 -6.30717 -5.61755
head 3.43372 -3.33595 -2.30662
rclavicle -1.50082e-014 2.70347e-014
rhumerus -35.2409 34.0176 -102.209
rradius 89.8315
rwrist 21.2299
rhand -2.69179 5.82264
rfingers 7.12502
rthumb 23.0097 -22.8239
lclavicle -1.50082e-014 2.70347e-014
lhumerus -41.8504 10.4316 81.1986
lradius 30.4434
lwrist -4.76435
lhand -3.23432 27.2768
lfingers 7.12502
lthumb 22.4891 55.9873
rfemur -6.85678 12.0287 20.1646
rtibia -4.37326e-015
rfoot 0.0455697 -14.3606
rtoes -4.66234
lfemur -14.9968 -21.9432 -13.2458
ltibia 17.4842
lfoot -6.0582 26.536
ltoes -8.28846
3837
root 0.264754 18.3184 -0.0140956 10.1087 -3.83591 -2.80777
lowerback -5.05429 -0.0963143 1.74939
upperback -3.64405 -0.193069 2.1669
thorax -0.911244 -0.106251 1.2359
lowerneck -5.54504 -4.92283 1.00734
upperneck 8.2459 -6.22267 -5.55793
head 3.43855 -3.28949 -2.29859
rclavicle -2.05307e-015 1.47101e-014
rhumerus -35.1326 34.1216 -102.336
rradius 90.0681
rwrist 21.5125
rhand -2.62972 5.99769
rfingers 7.12502
rthumb 23.0693 -22.6414
lclavicle -2.05307e-015 1.47101e-014
lhumerus -42.0864 9.65906 81.9112
lradius 32.414
lwrist -2.57148
lhand -3.45156 28.8328
lfingers 7.12502
lthumb 22.2805 57.5684
rfemur -6.81971 12.0683 20.1092
rtibia 2.78299e-015
rfoot 0.00730214 -14.3702
rtoes -4.66909
lfemur -14.978 -21.8562 -13.3276
ltibia 17.5248
lfoot -6.02435 26.4856
ltoes -8.34718
3838
root 0.268843 18.319 -0.018915 10.0957 -3.8948 -2.78329
lowerback -4.97177 -0.103759 1.77551
upperback -3.62173 -0.201944 2.15895
thorax -0.934226 -0.111319 1.21282
lowerneck -5.62229 -4.86736 1.09864
upperneck 8.2942 -6.15987 -5.4931
head 3.47184 -3.25396 -2.29554
rclavicle -3.36692e-015 -2.26615e-014
rhumerus -35.0578 34.2338 -102.478
rradius 90.2109
rwrist 21.5726
rhand -3.09451 6.33225
rfingers 7.12502
rthumb 22.6233 -22.3619
lclavicle -3.36692e-015 -2.26615e-014
lhumerus -42.3896 8.8291 82.6342
lradius 34.4449
lwrist -0.636813
lhand -3.90355 30.3351
lfingers 7.12502
lthumb 21.8466 59.1219
rfemur -6.83547 12.1198 20.0626
rtibia 1.70955e-014
rfoot 0.127781 -14.3752
rtoes -5.22692
lfemur -15.0251 -21.7139 -13.3895
ltibia 17.6251
lfoot -5.90898 26.3952
ltoes -8.68646
3839
root 0.273024 18.3195 -0.0231105 10.1083 -3.94574 -2.86626
lowerback -4.91176 -0.110805 1.90682
upperback -3.62286 -0.214112 2.18823
thorax -0.969306 -0.11966 1.16902
lowerneck -5.6443 -4.7908 1.14324
upperneck 8.37006 -6.06788 -5.38192
head 3.50789 -3.20307 -2.26623
rclavicle -3.74895e-015 1.47101e-014
rhumerus -35.0276 34.3544 -102.601
rradius 90.3949
rwrist 21.5949
rhand -3.34441 6.68426
rfingers 7.12502
rthumb 22.3834 -22.039
lclavicle -3.74895e-015 1.47101e-014
lhumerus -42.7116 8.17951 83.2153
lradius 36.2982
lwrist 1.03637
lhand -4.46767 30.495
lfingers 7.12502
lthumb 21.3048 59.344
rfemur -6.86872 12.1829 20.1236
rtibia 1.78906e-014
rfoot 0.153264 -14.3633
rtoes -4.99283
lfemur -15.0959 -21.547 -13.3314
ltibia 17.7409
lfoot -5.76257 26.3071
ltoes -8.92955
3840
root 0.277007 18.319 -0.0264451 10.1429 -3.98762 -2.98808
lowerback -4.88604 -0.1304 2.06558
upperback -3.6225 -0.245024 2.24804
thorax -0.983821 -0.137509 1.14047
lowerneck -5.60862 -4.68602 1.11048
upperneck 8.36681 -5.93859 -5.21269
head 3.51034 -3.1324 -2.19716
rclavicle -1.49523e-014 -1.27222e-014
rhumerus -34.9819 34.4725 -102.658
rradius 90.5943
rwrist 21.6213
rhand -3.55146 6.95433
rfingers 7.12502
rthumb 22.1846 -21.7927
lclavicle -1.49523e-014 -1.27222e-014
lhumerus -43.0109 7.71075 83.6818
lradius 38.1997
lwrist 2.71655
lhand -4.77371 30.1512
lfingers 7.12502
lthumb 21.0108 59.0331
rfemur -6.92216 12.2444 20.2227
rtibia -3.18055e-015
rfoot 0.17687 -14.3949
rtoes -4.69231
lfemur -15.2022 -21.3974 -13.2095
ltibia 17.8608
lfoot -5.74713 26.2286
ltoes -9.24698
3841
root 0.280153 18.3166 -0.0307061 10.1811 -4.03935 -3.04479
lowerback -4.89127 -0.155628 2.12779
upperback -3.60844 -0.281486 2.30384
thorax -0.966451 -0.156226 1.16149
lowerneck -5.57555 -4.57637 1.08343
upperneck 8.32111 -5.80047 -5.09218
head 3.49711 -3.05897 -2.1437
rclavicle -5.57529e-015 -7.55382e-015
rhumerus -34.8762 34.5675 -102.619
rradius 90.7682
rwrist 21.7521
rhand -3.80678 7.06856
rfingers 7.12502
rthumb 21.9395 -21.7074
lclavicle -5.57529e-015 -7.55382e-015
lhumerus -43.2748 7.31955 84.1429
lradius 40.3118
lwrist 4.64511
lhand -5.25885 30.1011
lfingers 7.12502
lthumb 20.5447 59.034
rfemur -6.99585 12.3027 20.2448
rtibia -1.19271e-015
rfoot 0.0949167 -14.4321
rtoes -3.60982
lfemur -15.3332 -21.2769 -13.1434
ltibia 17.992
lfoot -5.76986 26.1677
ltoes -9.6839
3842
root 0.284917 18.3155 -0.0350431 10.1674 -4.1117 -3.01991
lowerback -4.85643 -0.173722 2.11829
upperback -3.57435 -0.305038 2.31768
thorax -0.950474 -0.167562 1.18008
lowerneck -5.5672 -4.48402 1.12191
upperneck 8.3077 -5.68981 -4.97977
head 3.49669 -2.99791 -2.1077
rclavicle -9.59136e-015 1.70955e-014
rhumerus -34.6887 34.5986 -102.527
rradius 90.8578
rwrist 21.8713
rhand -4.07503 7.3248
rfingers 7.12502
rthumb 21.6819 -21.4811
lclavicle -9.59136e-015 1.70955e-014
lhumerus -43.5036 6.8649 84.6776
lradius 42.5993
lwrist 6.58025
lhand -6.20729 30.3269
lfingers 7.12502
lthumb 19.6331 59.3555
rfemur -7.01132 12.3671 20.1945
rtibia 2.0276e-014
rfoot 0.177259 -14.4465
rtoes -4.23802
lfemur -15.3588 -21.219 -13.1971
ltibia 18.0702
lfoot -5.90522 26.1167
ltoes -9.42406
